<svg xmlns="http://www.w3.org/2000/svg" viewBox="-4 -8 94 94" width="94" height="94">
	<style>
		.s0 { fill: #f66735 }
	</style>
	<g>
		<path class="s0" d="m85.3 77.2c-1.3 0-3.7 0-6.9 0-1.5 0-2.5-0.1-3-0.4-1.2-0.5-2.2-1.1-3.1-2-0.5-0.5-1.1-1.5-1.8-2.9-1.9-3.9-3.8-8-5.8-12.1q-1.05-2.25-1.5-3.3c-0.8-1.7-1.4-2.8-2-4.4-0.7-1.7-1.7-3.6-2.7-5.7-3.8-8.2-6.4-13.8-8-17-1.8-3.8-2.9-6.1-3.3-7-0.3-0.7-0.7-1.5-1.3-2.7-0.7-1.3-1.2-2.8-2-4.3-0.1-0.1-0.1-0.2-0.2-0.2-0.7-0.3-1.2 0-1.6 0.8-1.3 2.8-2.1 4.5-2.3 5.1-8.4 17.9-16.2 34.3-24.2 51.5-0.9 1.9-2.5 3.4-4.4 4.1-0.7 0.3-2 0.4-3.9 0.4-2.3 0-4.4 0-6.4 0-0.1 0-0.2-0.1-0.1-0.2 0.2-0.5 0.3-0.9 0.5-1.2 12.9-27.1 22.6-47.7 29.1-61.6 1.3-2.8 2.2-4.9 2.8-6.3 0.8-1.9 1.5-3.2 2.2-3.9 2.5-2.8 6.3-4 9.9-3.3 2.3 0.4 4.2 1.5 5.6 3.2 0.6 0.8 1.4 2.1 2.3 4.1q2.25 5.25 3.6 7.8c0.4 0.7 0.7 1.6 1 2.3 0.8 1.6 1.4 2.9 1.9 4 1.4 3 2.2 4.6 3.6 7.8 0.5 1.2 1.1 2.4 1.8 3.7 0.4 0.8 1.2 2.4 2.3 5 0.4 0.9 1.2 2.5 2.3 4.9 2.9 6.1 5.3 11.3 7.4 15.7 1.1 2.3 2.5 5.2 4.2 8.8 1.3 2.7 2.7 5.7 4.1 8.9 0.2 0.2 0.1 0.4-0.1 0.4z"/>
		<path class="s0" d="m58.3 61.3c-2.3 0.4-4.4 1.1-6.3 2-0.9 0.4-2 1.1-3.2 2-0.9 0.7-1.7 1.6-2.5 2.8-1.5 2.4-2.4 5.1-2.7 7.8 0 0.1-0.1 0.3-0.2 0.3-0.2 0.1-0.4 0.1-0.5 0-0.1-0.1-0.1-0.2-0.2-0.5-0.8-5-3.2-9.8-7.9-12.1-2-1-3.9-1.7-5.9-2.1-0.8-0.1-1.2-0.2-1.2-0.2-0.2-0.1-0.3-0.2-0.3-0.4 0-0.3 0.1-0.4 0.4-0.5 3.8-0.8 8-2 10.8-5 0.9-0.9 1.4-2 1.9-3.1 0.4-0.7 0.8-1.5 1-2.2 0.2-0.7 0.4-1.4 0.6-2 0.1-0.5 0.3-1.1 0.4-1.6 0.1-0.3 0.1-1 0.6-1 0.5 0 0.6 0.7 0.6 1 0.2 1.3 0.5 2.5 0.9 3.7 0.8 2.4 2.1 4.9 4.2 6.4 2.6 1.9 5.9 3.2 9.3 3.8 0.6 0.2 0.6 0.8 0.2 0.9z"/>
	</g>
</svg>
