<?xml version="1.0" encoding="utf-8"?>
<!-- Generator: Adobe Illustrator 25.2.0, SVG Export Plug-In . SVG Version: 6.00 Build 0)  -->
<svg version="1.1" id="Layer_1" xmlns="http://www.w3.org/2000/svg" xmlns:xlink="http://www.w3.org/1999/xlink" x="0px" y="0px"
	 viewBox="0 0 432 216" enable-background="new 0 0 432 216" xml:space="preserve">
<g>
	<path fill="#F66735" d="M106.3,138.2c-1.3,0-3.7,0-6.9,0c-1.5,0-2.5-0.1-3-0.4c-1.2-0.5-2.2-1.1-3.1-2c-0.5-0.5-1.1-1.5-1.8-2.9
		c-1.9-3.9-3.8-8-5.8-12.1c-0.7-1.5-1.2-2.6-1.5-3.3c-0.8-1.7-1.4-2.8-2-4.4c-0.7-1.7-1.7-3.6-2.7-5.7c-3.8-8.2-6.4-13.8-8-17
		c-1.8-3.8-2.9-6.1-3.3-7c-0.3-0.7-0.7-1.5-1.3-2.7c-0.7-1.3-1.2-2.8-2-4.3c-0.1-0.1-0.1-0.2-0.2-0.2c-0.7-0.3-1.2,0-1.6,0.8
		c-1.3,2.8-2.1,4.5-2.3,5.1c-8.4,17.9-16.2,34.3-24.2,51.5c-0.9,1.9-2.5,3.4-4.4,4.1c-0.7,0.3-2,0.4-3.9,0.4c-2.3,0-4.4,0-6.4,0
		c-0.1,0-0.2-0.1-0.1-0.2c0.2-0.5,0.3-0.9,0.5-1.2C35.2,109.6,44.9,89,51.4,75.1c1.3-2.8,2.2-4.9,2.8-6.3c0.8-1.9,1.5-3.2,2.2-3.9
		c2.5-2.8,6.3-4,9.9-3.3c2.3,0.4,4.2,1.5,5.6,3.2c0.6,0.8,1.4,2.1,2.3,4.1c1.5,3.5,2.7,6.1,3.6,7.8c0.4,0.7,0.7,1.6,1,2.3
		c0.8,1.6,1.4,2.9,1.9,4c1.4,3,2.2,4.6,3.6,7.8c0.5,1.2,1.1,2.4,1.8,3.7c0.4,0.8,1.2,2.4,2.3,5c0.4,0.9,1.2,2.5,2.3,4.9
		c2.9,6.1,5.3,11.3,7.4,15.7c1.1,2.3,2.5,5.2,4.2,8.8c1.3,2.7,2.7,5.7,4.1,8.9C106.6,138,106.5,138.2,106.3,138.2z"/>
	<path fill="#251611" d="M360.4,73.6v61.2c0,0.2-0.2,0.4-0.4,0.4h-8.4c-0.2,0-0.4-0.2-0.4-0.4V73.6c0-0.2,0.2-0.4,0.4-0.4h8.4
		C360.2,73.3,360.4,73.4,360.4,73.6z"/>
	<path fill="#251611" d="M155.6,121.1c-0.5,1.9-1.3,3.5-2.3,5c-3.8,5.5-9,8.8-15.6,10c-4.1,0.8-7.9,0.5-12.1-0.7
		c-7.6-2.2-13.4-8-16-15.5c-0.9-2.6-1.3-5.5-1.2-8.5c0.2-7.1,2.9-13.2,7.9-18.1c3.4-3.3,8.4-5.7,13.3-6.3c3.7-0.5,7.2-0.2,10.7,0.8
		c6.4,2,11.4,6.3,14.3,12.3c0.4,0.9,0.7,1.8,0.9,2.7c0,0.1-0.1,0.3-0.2,0.3c-2.7,0.8-5.5,1.5-8.3,1.3c-0.1,0-0.2-0.1-0.2-0.2
		c-1.5-3.2-3.8-5.5-6.9-7c-3.6-1.7-7.6-2.1-11.5-0.8c-3.2,1.1-5.9,3.1-7.9,5.9c-3.1,4.3-3.7,10.1-2,15.2c2.8,8,11.8,12.1,19.7,9.3
		c3.9-1.4,6.8-3.9,8.7-7.6c0.1-0.1,0.2-0.2,0.3-0.2c1-0.1,1.9,0,2.9,0.2c1.1,0.2,2.8,0.6,5,1.2C155.6,120.4,155.7,120.7,155.6,121.1
		z"/>
	<path fill="#251611" d="M209.8,110.3c-0.5-6.5-2.9-11.9-7.1-16.2c-2.8-2.9-6.2-5-10-6.2c-6.9-2.2-14.8-1.3-20.9,2.6
		c-5.5,3.5-9.3,9.5-10.6,15.9c-1.1,5.4-0.5,10.7,1.8,15.7c3.6,8,11.4,13.6,20.3,14.2c7.9,0.6,15.8-2.3,21-8.5c3.2-3.8,5-8.1,5.4-13
		C209.9,112.9,209.9,111.3,209.8,110.3z M185.6,127.6c-8.6,0.2-15.6-6.9-15.8-15.7c-0.2-8.8,6.6-16.1,15.2-16.3
		c8.6-0.2,15.6,6.9,15.8,15.7C200.9,120.2,194.1,127.5,185.6,127.6z"/>
	<path fill="#251611" d="M287.6,135c0,0.1-0.1,0.1-0.1,0.1h-8.7c-0.1,0-0.1-0.1-0.1-0.1c0-15.2,0-25.2,0-30.2c0-0.4-0.1-1.1-0.3-2.1
		c-0.6-2.7-2.5-4.8-5.2-6c-6-2.5-14.4-1-16.4,6c-0.3,1-0.4,2.6-0.3,5c0,0.6,0,9.6,0,27.1c0,0.1-0.1,0.2-0.2,0.2h-8.8
		c-0.1,0-0.1-0.1-0.1-0.1c0-16.7,0-25.9,0-27.5c0-2.2-0.1-3.8-0.4-4.7c-0.8-2.7-2.3-4.4-4.9-5.8c-5.2-2.8-14.6-1.4-16.5,5.1
		c-0.3,0.9-0.4,2.6-0.4,4.9c0,6.6,0,15.9,0,28c0,0.1-0.1,0.1-0.1,0.1h-8.8c-0.1,0-0.1-0.1-0.1-0.1c0-12.1,0-21.5,0-28.4
		c0-1.3,0-2.5,0.1-3.7c0.1-2,0.8-4.8,1.9-6.9c3.3-6.2,9.6-8.7,16.3-9.3c3.4-0.3,6.7,0.3,9.9,1.4c3,1,5.5,2.8,7.7,5.1
		c0.1,0.1,0.2,0.1,0.3,0c2.9-3.1,6.4-5.1,10.6-6c2.7-0.6,5.1-0.7,7.1-0.5c2.7,0.3,5.6,0.9,8.3,2.2c4.5,2,7.4,5.4,8.7,10.2
		c0.5,1.9,0.7,4.1,0.7,6.1C287.6,115.9,287.6,125.8,287.6,135z"/>
	<path fill="#251611" d="M341.9,100.6c-3.8-7.8-11-12.8-19.7-13.7c-3.8-0.4-7.5,0-11,1.2c-3.2,1.1-6.1,2.9-8.5,5.2
		c-2.5,2.4-4.3,5.2-5.6,8.3c-1,2.6-1.6,5.1-1.6,7.4c0,1.4-0.1,3.2,0,5.5c0,5.2,0,16.5,0,34c0,0.1,0.1,0.2,0.2,0.2h8.7
		c0.1,0,0.2-0.1,0.2-0.2v-17.5c0-0.1,0.1-0.1,0.1,0c2.8,2.5,6.3,4.2,10.1,5c5.3,1,10.3,0.5,15.2-1.6c4.9-2.1,8.7-5.4,11.2-10.1
		c2.1-3.8,3.2-7.7,3.3-11.8C344.6,108.3,343.7,104.3,341.9,100.6z M320,127.7c-8.5,0.1-15.6-7-15.7-15.8s6.7-16.1,15.3-16.2
		s15.6,7,15.7,15.8C335.4,120.3,328.6,127.6,320,127.7z"/>
	<path fill="#251611" d="M410.3,88.6c-0.1,0.2-0.2,0.5-0.3,0.9c-7,18.5-13.8,36.7-20.3,54.6c-0.6,1.8-1.7,3.6-3.1,5.4
		c-2.8,3.4-6.4,5.2-10.7,5.1c-1.3,0-2.7-0.1-4-0.2c-0.1,0-0.1-0.1-0.1-0.2v-8c0-0.1,0.1-0.2,0.2-0.2c1,0,2.1,0,3.4,0
		c2.8-0.1,5.1-2.1,6-4.6c0.7-2,1.6-4.2,2.4-6.7c0.1-0.2,0.1-0.3,0-0.5c-5.3-13.8-11.1-28.6-17.3-44.3c-0.2-0.6-0.4-1.1-0.5-1.4
		c0-0.1,0-0.2,0.1-0.2h9.5c0.1,0,0.1,0,0.1,0.1l12.6,34.5c0,0.1,0.2,0.1,0.2,0l12-34.5c0-0.1,0.1-0.1,0.2-0.1h9.3
		C410.2,88.3,410.3,88.4,410.3,88.6z"/>
	<path fill="#F66735" d="M79.3,122.3c-2.3,0.4-4.4,1.1-6.3,2c-0.9,0.4-2,1.1-3.2,2c-0.9,0.7-1.7,1.6-2.5,2.8
		c-1.5,2.4-2.4,5.1-2.7,7.8c0,0.1-0.1,0.3-0.2,0.3c-0.2,0.1-0.4,0.1-0.5,0c-0.1-0.1-0.1-0.2-0.2-0.5c-0.8-5-3.2-9.8-7.9-12.1
		c-2-1-3.9-1.7-5.9-2.1c-0.8-0.1-1.2-0.2-1.2-0.2c-0.2-0.1-0.3-0.2-0.3-0.4c0-0.3,0.1-0.4,0.4-0.5c3.8-0.8,8-2,10.8-5
		c0.9-0.9,1.4-2,1.9-3.1c0.4-0.7,0.8-1.5,1-2.2c0.2-0.7,0.4-1.4,0.6-2c0.1-0.5,0.3-1.1,0.4-1.6c0.1-0.3,0.1-1,0.6-1
		c0.5,0,0.6,0.7,0.6,1c0.2,1.3,0.5,2.5,0.9,3.7c0.8,2.4,2.1,4.9,4.2,6.4c2.6,1.9,5.9,3.2,9.3,3.8C79.7,121.6,79.7,122.2,79.3,122.3z
		"/>
</g>
</svg>
